<svg width="120" height="33" viewBox="0 0 265 72" xmlns="http://www.w3.org/2000/svg" xmlns:xlink="http://www.w3.org/1999/xlink"><title>m3ter</title><defs><linearGradient x1="80.3668825%" y1="15.234721%" x2="18.6061136%" y2="87.5237252%" id="linearGradient-1"><stop stop-color="#88BD24" offset="0%"></stop><stop stop-color="#4CAF4C" offset="100%"></stop></linearGradient></defs><g transform="translate(0.404624, 0.994220)" fill-rule="nonzero" fill="#002755"><path d="M19.6242774,15.9653179 L19.6242774,22.9537572 C24.6127167,17.0751445 29.601156,14.5317919 36.1445086,14.5317919 C42.7976878,14.5317919 47.6763006,17.1907514 51.3352601,22.9595375 C56.5491329,16.9653179 61.4277456,14.5317919 68.300578,14.5317919 C74.0809248,14.5317919 79.283237,16.5260115 82.8265896,20.0751445 C86.5953757,23.8439306 88.150289,28.8323699 88.150289,36.8381502 L88.150289,69.5491329 L67.4161849,69.5491329 L67.4161849,39.9132948 C67.4161849,34.0404624 65.3063584,31.1560693 61.0924855,31.1560693 C56.7687861,31.1560693 54.3294797,34.2601156 54.3294797,39.9132948 L54.3294797,69.5202312 L33.6184971,69.5202312 L33.6184971,39.9132948 C33.6184971,34.0404624 31.6242774,31.1560693 27.4104046,31.1560693 C23.1965318,31.1560693 20.7572254,34.3699421 20.7572254,39.9132948 L20.7572254,69.5202312 L-7.10542736e-15,69.5202312 L-7.10542736e-15,15.9653179 L19.6242774,15.9653179 Z"></path><path d="M159.427746,28.9364161 L149.803468,28.9364161 L149.803468,48.7861271 C149.803468,53.3352601 151.468208,55.2196531 155.346821,55.2196531 C156.743929,55.2502263 158.134842,55.0249375 159.450867,54.5549132 L159.450867,68.6358381 C155.727419,69.6619956 151.890426,70.2192916 148.028902,70.2947976 C141.930636,70.2947976 137.046243,68.4104046 133.612717,64.867052 C130.398844,61.5375722 129.069364,56.8786127 129.069364,49.5606936 L129.069364,28.9364161 L121.173411,28.9364161 L121.173411,15.9653179 L129.046243,15.9653179 L129.046243,0 L149.803468,0 L149.803468,15.9653179 L159.450867,15.9653179 L159.427746,28.9364161 Z"></path><path d="M179.606937,47.6763005 C180.381503,53.1098265 184.485549,56.5491329 190.364162,56.5491329 C193.907515,56.5491329 196.346821,55.4393063 197.878613,53 L218.057804,53 C215.618497,63.4046242 203.647399,70.9653179 189.676301,70.9653179 C171.601156,70.9653179 159.069364,59.317919 159.069364,42.5780346 C159.069364,26.3930635 171.710983,14.5260115 189.127168,14.5260115 C201.3237,14.5260115 211.300578,20.3988439 216.069364,30.601156 C218.063584,35.034682 218.959538,39.8034682 218.959538,47.6763005 L179.606937,47.6763005 Z M198.236994,36.5895953 C197.65896,31.3872832 194.132948,28.1618497 188.919075,28.1618497 C183.82081,28.1618497 180.248555,31.3757225 179.716763,36.5895953 L198.236994,36.5895953 Z" id="Shape"></path><path d="M241.479769,15.9653179 L241.479769,23.3930635 C246.242775,17.2947976 251.121388,14.5317919 257.317919,14.5317919 C259.421966,14.5317919 260.861272,14.751445 263.745665,15.6416185 L263.745665,34.1387283 C259.641619,32.583815 258.092486,32.2543352 255.427746,32.2543352 C247.560694,32.2543352 242.566474,37.2427745 242.566474,45.1156069 L242.566474,69.5086705 L221.849711,69.5086705 L221.849711,15.9653179 L241.479769,15.9653179 Z"></path><path d="M96.450867,18.6358381 C97.2189614,18.715104 97.9908563,18.751769 98.7630058,18.7456647 C103.312139,18.7456647 105.306359,17.6358381 105.306359,15.0867052 C105.306359,12.6473988 103.202312,10.9826589 100.104047,10.9826589 C96.2196532,10.9826589 94.5606936,12.6473988 94.4450867,16.7630057 L81.8150289,16.7630057 C82.1734104,6.65895954 88.5780347,1.23699422 100.439307,1.23699422 C110.976879,1.23699422 118.069364,6.43930636 118.069364,13.9884393 C118.069364,17.317919 116.520231,19.6473988 112.867052,21.9710982 C117.630058,24.2832369 119.630058,27.2947976 119.630058,32.0635838 C119.630058,40.8208092 111.647399,46.9190751 100.225434,46.9190751 C87.3641618,46.9190751 80.601156,40.7109826 80.601156,28.9595375 L93.3526011,28.9595375 C93.4624277,34.0578034 95.566474,36.4739884 99.9999997,36.4739884 C103.439307,36.4739884 105.780347,34.5895953 105.780347,31.8497109 C105.780347,28.8554913 103.231214,26.9710982 99.1271676,26.9710982 L96.4682081,26.9710982 L96.450867,18.6358381 Z" fill="url(#linearGradient-1)"></path></g></svg>