<?xml version="1.0" encoding="UTF-8"?>
<svg version="1.1" xmlns="http://www.w3.org/2000/svg" width="975" height="158">
<path d="M0 0 C2.47335387 1.91226896 4.79291548 3.90372888 7.09375 6.01953125 C7.87234375 6.71820312 8.6509375 7.416875 9.453125 8.13671875 C24.89111946 22.69402225 32.41727171 42.81549016 33.08984375 63.71875 C33.35842502 85.53243255 24.94626893 105.21645111 10.09375 121.01953125 C-6.36176432 136.48524019 -26.67297246 144.56636315 -49.29760742 143.99633789 C-67.36271765 143.14925018 -85.43122712 136.26000038 -98.90625 124.01953125 C-99.63972656 123.37757813 -100.37320312 122.735625 -101.12890625 122.07421875 C-115.56601987 108.65240815 -124.19519153 89.64545571 -125.2265625 70.0234375 C-125.58080247 58.75798691 -124.40473127 48.72148264 -120.90625 38.01953125 C-120.6175 37.10042969 -120.32875 36.18132813 -120.03125 35.234375 C-113.61873419 17.17054699 -98.64927186 2.48741149 -81.96875 -6.29296875 C-55.14976009 -18.98000734 -24.45148318 -16.66250265 0 0 Z " fill="#153AA3" transform="translate(451.90625,13.98046875)"/>
<path d="M0 0 C79.80178174 0 79.80178174 0 91.6875 6.4375 C92.78449219 7.01371094 93.88148438 7.58992187 95.01171875 8.18359375 C104.47063071 13.93312847 109.67230315 21.53908633 113 32 C115.62856069 43.02243115 114.25232216 54.42633745 108.6796875 64.3515625 C99.78031228 76.94685312 87.40248852 81.95917642 73 86 C73.75023437 86.93199219 74.50046875 87.86398438 75.2734375 88.82421875 C81.95373507 97.13889363 88.52549548 105.52447547 95 114 C96.58229743 116.06329482 98.16565008 118.12578081 99.75 120.1875 C100.14509766 120.70304443 100.54019531 121.21858887 100.94726562 121.74975586 C103.52172834 125.10229857 106.12401875 128.43145463 108.7421875 131.75 C109.70560059 132.97553589 109.70560059 132.97553589 110.68847656 134.22583008 C111.96507381 135.84861501 113.24558944 137.46832621 114.53027344 139.0847168 C115.11067383 139.82375244 115.69107422 140.56278809 116.2890625 141.32421875 C116.81193848 141.98510498 117.33481445 142.64599121 117.87353516 143.3269043 C119 145 119 145 119 147 C113.954256 147.85798076 108.95425272 148.54013718 104 147 C99.74609705 143.95876543 97.04804883 139.27312298 94.26757812 134.93261719 C92.32377474 131.96899092 90.13101248 129.21817129 87.9375 126.4375 C87.11155827 125.36460544 86.28733576 124.29038518 85.46484375 123.21484375 C82.98043289 119.97357944 80.4906675 116.73645784 78 113.5 C75.4280372 110.1575143 72.85704443 106.81429553 70.2890625 103.46875 C69.62003906 102.59766602 69.62003906 102.59766602 68.9375 101.70898438 C67.7001932 100.09790782 66.46336243 98.48646571 65.2265625 96.875 C63.75432319 94.97400328 62.24918219 93.09799362 60.7109375 91.25 C59 89 59 89 59 87 C43.16 87 27.32 87 11 87 C11 106.8 11 126.6 11 147 C7.37 147 3.74 147 0 147 C0 98.49 0 49.98 0 0 Z M11 11 C11 32.45 11 53.9 11 76 C24.4578125 76.0928125 24.4578125 76.0928125 38.1875 76.1875 C42.39536255 76.22846802 42.39536255 76.22846802 46.68823242 76.27026367 C48.95230684 76.27903885 51.21638606 76.28668033 53.48046875 76.29296875 C54.62310181 76.30831665 55.76573486 76.32366455 56.94299316 76.33947754 C70.08814988 76.34367503 82.8327057 73.93535605 93.09765625 65.21875 C99.18781017 58.90878161 102.1183099 51.15480927 102.5 42.4375 C102.12424747 33.92852343 98.86901429 26.93006883 93.0546875 20.75390625 C81.82495062 11.16806621 67.17396522 10.83993927 53.1875 10.90234375 C52.11435547 10.90335083 51.04121094 10.90435791 49.93554688 10.90539551 C45.95702026 10.91059638 41.97850897 10.92455748 38 10.9375 C29.09 10.958125 20.18 10.97875 11 11 Z " fill="#1339A2" transform="translate(160,5)"/>
<path d="M0 0 C2 1.0625 2 1.0625 3 3 C3.4375 6.4375 3.4375 6.4375 3 10 C2.34354492 10.62165039 1.68708984 11.24330078 1.01074219 11.88378906 C-1.50223712 14.52858079 -1.5294766 15.82644689 -1.609375 19.421875 C-1.64160156 20.44667969 -1.67382812 21.47148438 -1.70703125 22.52734375 C-1.72121094 23.59082031 -1.73539062 24.65429688 -1.75 25.75 C-1.79447266 27.36841797 -1.79447266 27.36841797 -1.83984375 29.01953125 C-1.91046936 31.67976244 -1.96320196 34.33912102 -2 37 C-0.01739401 36.57835981 1.96107245 36.13721222 3.9375 35.6875 C5.03964844 35.44386719 6.14179688 35.20023438 7.27734375 34.94921875 C8.17582031 34.63597656 9.07429688 34.32273438 10 34 C10.33 33.01 10.66 32.02 11 31 C10.175 30.46375 9.35 29.9275 8.5 29.375 C6 27 6 27 5.4375 24 C6 21 6 21 7.5 18.625 C11.26897129 16.17516866 13.54334931 16.4340761 18 17 C20.0625 18.5625 20.0625 18.5625 21 21 C20.92947741 24.94926477 20.76086799 27.16549962 18.0625 30.125 C17.381875 30.74375 16.70125 31.3625 16 32 C15.67 32.845625 15.34 33.69125 15 34.5625 C13.83289935 37.40730784 12.5604276 38.37839585 10 40 C10.7425 40.53625 11.485 41.0725 12.25 41.625 C15.19695105 44.17009409 17.03486674 46.6519952 19 50 C19 50.66 19 51.32 19 52 C19.66 52 20.32 52 21 52 C20.9071875 50.8553125 20.9071875 50.8553125 20.8125 49.6875 C21 47 21 47 22.1875 45.3125 C24 44 24 44 26.4375 43.0625 C29.14238419 42.17466537 29.14238419 42.17466537 30.8125 39.8125 C33.36807161 37.69502638 33.94384065 37.76444543 37.125 38.0625 C41 39 41 39 43 42 C43.54404145 48.09326425 43.54404145 48.09326425 41.875 50.875 C39.11377619 52.53173428 37.23421175 53 34 53 C31.125 50.5625 31.125 50.5625 29 48 C27.515 48.495 27.515 48.495 26 49 C24.87293757 51.34428986 23.9104123 53.57858929 23 56 C22.33496517 57.66731848 21.66846664 59.33405445 21 61 C25.0843728 60.94816332 29.16662471 60.8530929 33.25 60.75 C34.40886719 60.73582031 35.56773437 60.72164062 36.76171875 60.70703125 C37.87675781 60.67480469 38.99179687 60.64257812 40.140625 60.609375 C41.68024902 60.5779541 41.68024902 60.5779541 43.25097656 60.54589844 C46.64881028 59.87115988 47.70443056 58.5072788 50 56 C53.31123632 55.51711137 55.296549 55.70381011 58.375 57 C60.47340889 59.5826571 60.62470524 61.77490543 60.44921875 65.0546875 C60 67 60 67 57.875 69.5625 C55 71 55 71 51.875 71 C49 70 49 70 47.68041992 67.97558594 C46.13264588 65.74598977 46.13264588 65.74598977 43.36450195 65.45410156 C42.33284912 65.4331543 41.30119629 65.41220703 40.23828125 65.390625 C39.12001953 65.35839844 38.00175781 65.32617188 36.84960938 65.29296875 C35.09874023 65.27169922 35.09874023 65.27169922 33.3125 65.25 C32.13365234 65.22035156 30.95480469 65.19070312 29.74023438 65.16015625 C26.82675368 65.08938344 23.91407664 65.03672275 21 65 C22.25755815 68.1807469 23.57447448 71.26313313 25.125 74.3125 C25.47820312 75.00988281 25.83140625 75.70726563 26.1953125 76.42578125 C26.46085937 76.94527344 26.72640625 77.46476562 27 78 C27.66 78 28.32 78 29 78 C29.556875 77.01 29.556875 77.01 30.125 76 C32 74 32 74 33.8671875 73.62890625 C36.91115044 73.53413085 39.25561765 73.62780883 42 75 C43.63041883 78.26083766 43.65964122 81.44238446 43 85 C40.86114125 87.63244154 39.44374823 87.92282639 36.125 88.5 C31.92174918 87.82747987 30.10601659 85.84167475 27 83 C26.0925 82.525625 25.185 82.05125 24.25 81.5625 C21.25359817 79.4816654 20.84738459 77.46657332 20 74 C19.484375 74.70125 18.96875 75.4025 18.4375 76.125 C14.79557582 80.42060287 10.68015919 83.87989387 6 87 C7.11375 87.45375 8.2275 87.9075 9.375 88.375 C13 90 13 90 15 92 C15.28875 92.78375 15.5775 93.5675 15.875 94.375 C16.82775861 97.13159183 16.82775861 97.13159183 19.1875 98.875 C21 101 21 101 21 104.5625 C20 108 20 108 18.375 110 C14.88418213 111.46981805 12.60851044 110.98413921 9 110 C6.65427929 107.88128452 6.10456028 106.5974873 5.5625 103.5 C6.13781637 100.2124779 7.42365147 99.04592383 10 97 C10.66 97 11.32 97 12 97 C9.52563331 92.77902153 6.46119452 91.72186455 2 90 C0.66060259 89.34560197 -0.67432801 88.68177416 -2 88 C-1.94805836 92.06353744 -1.85296244 96.12496032 -1.75 100.1875 C-1.73582031 101.33798828 -1.72164063 102.48847656 -1.70703125 103.67382812 C-1.67480469 104.78564453 -1.64257812 105.89746094 -1.609375 107.04296875 C-1.5779541 108.57473755 -1.5779541 108.57473755 -1.54589844 110.13745117 C-0.87211628 113.67058882 0.68151832 115.30767024 3 118 C3.5625 121.0625 3.5625 121.0625 3 124 C0.9375 126.4375 0.9375 126.4375 -2 128 C-5.6875 127.9375 -5.6875 127.9375 -9 127 C-11.48038907 123.2794164 -11.46337203 121.40203429 -11 117 C-10.34483398 116.38737305 -9.68966797 115.77474609 -9.01464844 115.14355469 C-6.41846083 112.38125134 -6.46701001 110.88349027 -6.390625 107.140625 C-6.35839844 106.02558594 -6.32617188 104.91054687 -6.29296875 103.76171875 C-6.27878906 102.60285156 -6.26460938 101.44398437 -6.25 100.25 C-6.20552734 98.48849609 -6.20552734 98.48849609 -6.16015625 96.69140625 C-6.08949273 93.79420178 -6.03677734 90.89780045 -6 88 C-7.32 88 -8.64 88 -10 88 C-10.495 89.485 -10.495 89.485 -11 91 C-13.01991785 91.94030659 -15.05516382 92.51654915 -17.1875 93.15625 C-17.785625 93.4346875 -18.38375 93.713125 -19 94 C-19.495 95.485 -19.495 95.485 -20 97 C-19.0409375 97.4640625 -19.0409375 97.4640625 -18.0625 97.9375 C-16 99 -16 99 -15 100 C-14.63604023 103.85797355 -14.43992465 106.15988698 -16.625 109.4375 C-19.71685231 111.47161336 -21.36367425 111.60605429 -25 111 C-27.375 109.4375 -27.375 109.4375 -29 107 C-29.73283481 101.03263086 -29.73283481 101.03263086 -27.625 98.0625 C-26 97 -26 97 -24 97 C-23.814375 95.88625 -23.62875 94.7725 -23.4375 93.625 C-22.7259375 91.830625 -22.7259375 91.830625 -22 90 C-18.4375 88.6875 -18.4375 88.6875 -15 88 C-14.67 87.34 -14.34 86.68 -14 86 C-14.70125 85.773125 -15.4025 85.54625 -16.125 85.3125 C-21.57562457 82.82417139 -25.26766797 79.31286784 -28 74 C-28.37125 75.11375 -28.7425 76.2275 -29.125 77.375 C-29.953125 79.328125 -29.953125 79.328125 -31 81 C-33.875 82.125 -33.875 82.125 -37 83 C-37.825 83.86625 -38.65 84.7325 -39.5 85.625 C-42 88 -42 88 -45.0625 88.625 C-48 88 -48 88 -50.4375 85.9375 C-52.46887051 82.11852344 -52.16377498 80.11200491 -51 76 C-47.2794164 73.51961093 -45.40203429 73.53662797 -41 74 C-38.5625 76 -38.5625 76 -37 78 C-36.01 77.67 -35.02 77.34 -34 77 C-32.85771342 74.24236568 -32.85771342 74.24236568 -32 71 C-31.33918839 68.99805783 -30.67336867 66.99775351 -30 65 C-33.91774905 65.05185519 -37.83329005 65.14692869 -41.75 65.25 C-42.86117188 65.26417969 -43.97234375 65.27835937 -45.1171875 65.29296875 C-46.18710937 65.32519531 -47.25703125 65.35742188 -48.359375 65.390625 C-49.83615723 65.4220459 -49.83615723 65.4220459 -51.34277344 65.45410156 C-54.66265562 66.13613542 -55.7860693 67.51104118 -58 70 C-60.95916382 70.77244967 -62.86731378 70.39780142 -66 70 C-68.0625 68.4375 -68.0625 68.4375 -69 66 C-68.87890756 62.54886548 -68.63213135 60.03137221 -66.8125 57.0625 C-64.04411529 55.43965379 -62.14454533 55.55077924 -59 56 C-58.39768555 56.65645508 -57.79537109 57.31291016 -57.17480469 57.98925781 C-54.38719541 60.56657596 -52.89029018 60.53285122 -49.140625 60.609375 C-48.02558594 60.64160156 -46.91054688 60.67382812 -45.76171875 60.70703125 C-44.02341797 60.72830078 -44.02341797 60.72830078 -42.25 60.75 C-41.07566406 60.77964844 -39.90132813 60.80929688 -38.69140625 60.83984375 C-35.7946405 60.91049657 -32.8973158 60.95751736 -30 61 C-31.65 56.71 -33.3 52.42 -35 48 C-37.99139791 48.68382061 -37.99139791 48.68382061 -39.1875 50.5625 C-41.76371721 52.60570675 -43.90744096 52.48369275 -47.125 52.34765625 C-49 52 -49 52 -51 50.375 C-52.29618989 47.296549 -52.48288863 45.31123632 -52 42 C-50.375 39.625 -50.375 39.625 -48 38 C-44.49010104 37.48813973 -42.70545237 37.59158021 -39.625 39.375 C-39.08875 39.91125 -38.5525 40.4475 -38 41 C-38 41.66 -38 42.32 -38 43 C-36.906875 43.226875 -35.81375 43.45375 -34.6875 43.6875 C-31 45 -31 45 -29.0625 47.625 C-28.711875 48.40875 -28.36125 49.1925 -28 50 C-27.60167969 49.45730469 -27.20335937 48.91460937 -26.79296875 48.35546875 C-26.26316406 47.64003906 -25.73335938 46.92460938 -25.1875 46.1875 C-24.66542969 45.47980469 -24.14335937 44.77210937 -23.60546875 44.04296875 C-22.16871123 42.21468607 -20.68184237 40.60103312 -19 39 C-19.598125 38.62875 -20.19625 38.2575 -20.8125 37.875 C-23.50452632 35.56754887 -24.47836684 33.17558225 -26 30 C-26.8353125 29.2884375 -26.8353125 29.2884375 -27.6875 28.5625 C-29 27 -29 27 -29.5 23.5625 C-29 20 -29 20 -26.875 17.5 C-24 16 -24 16 -20.875 16.0625 C-16.50810811 17.48648649 -16.50810811 17.48648649 -15 20 C-14.5625 23.4375 -14.5625 23.4375 -15 27 C-17 29.4375 -17 29.4375 -19 31 C-18.33178312 34.12779105 -18.33178312 34.12779105 -15.875 35.1875 C-12.4918362 36.14361151 -9.50089421 36.05354309 -6 36 C-6.05189759 32.41548691 -6.14697784 28.83337949 -6.25 25.25 C-6.26417969 24.23421875 -6.27835937 23.2184375 -6.29296875 22.171875 C-6.32271983 16.39387388 -6.32271983 16.39387388 -9.01953125 11.51953125 C-9.67308594 11.01808594 -10.32664062 10.51664063 -11 10 C-11.42213381 6.56262469 -11.60856522 4.17909511 -10 1.0625 C-6.75978228 -0.65886567 -3.58042244 -0.52960415 0 0 Z " fill="#F1F3F9" transform="translate(410,15)"/>
<path d="M0 0 C-0.50522222 4.37859255 -3.17827222 6.81651224 -6 10 C-9.55597927 9.38717818 -11.60910082 7.94403646 -14.4375 5.75 C-20.22798449 1.59075819 -26.24870893 -0.80668716 -33 -3 C-33.74765625 -3.2475 -34.4953125 -3.495 -35.265625 -3.75 C-46.82580191 -6.92684251 -60.15280063 -5.94376379 -71 -1 C-77.57867061 2.89704242 -82.35403257 7.46154204 -84.578125 14.9453125 C-85.97995031 21.77272096 -85.36879568 28.85304165 -82 35 C-72.3383437 47.56015319 -53.78262131 50.02684198 -39.2878418 53.37719727 C-23.63444841 57.06522743 -8.42892856 62.13392858 1 76 C3.87502662 81.71480633 4.51792964 87.03957009 4.4375 93.375 C4.42992676 94.21135986 4.42235352 95.04771973 4.41455078 95.90942383 C4.14785542 105.91049999 0.86101556 113.66472069 -6 121 C-19.86322942 133.42513508 -36.28386021 135.04282063 -54.23095703 134.21582031 C-73.02650591 132.75088774 -90.43511115 123.78753133 -104 111 C-99.85714286 104.57142857 -99.85714286 104.57142857 -97 102 C-93.67605744 103.00725532 -91.45416818 104.37438587 -88.9375 106.6875 C-73.78437089 120.10228313 -56.00582422 122.8469565 -36.56445312 122.17919922 C-27.42246078 121.54037378 -19.61364124 117.00203451 -13.46875 110.33984375 C-8.94941529 104.57243696 -7.73442179 98.69783717 -8.0625 91.5 C-8.8559543 85.05429819 -10.99428246 80.69302081 -15.83984375 76.3515625 C-25.66053337 69.14606584 -37.74126472 66.75320749 -49.375 64.0625 C-66.00560209 60.19787661 -83.07442002 56.0830594 -93.59375 41.4453125 C-98.74850546 32.48176551 -99.44404998 21.76890082 -96.875 11.875 C-93.50529828 1.98531727 -87.05718738 -5.59479362 -77.984375 -10.6953125 C-52.27609579 -23.30577173 -22.18997547 -17.0459357 0 0 Z " fill="#1339A2" transform="translate(971,20)"/>
<path d="M0 0 C80.54285714 0 80.54285714 0 96.9765625 15.9140625 C104.86611754 24.34077874 107.84794602 34.18611489 108.0703125 45.61328125 C107.63416088 58.17188223 103.9312679 68.94662492 95 78 C77.21504951 93.28394183 55.16362108 93.45583813 33 93.1875 C25.74 93.125625 18.48 93.06375 11 93 C11 110.82 11 128.64 11 147 C7.37 147 3.74 147 0 147 C0 98.49 0 49.98 0 0 Z M11 11 C11 34.43 11 57.86 11 82 C21.76625 82.061875 21.76625 82.061875 32.75 82.125 C34.99006836 82.14320801 37.23013672 82.16141602 39.53808594 82.18017578 C57.63237136 82.26738026 74.2174305 81.60844868 87.9375 68.328125 C93.76463217 61.75052884 96.53924253 52.97643806 96.24609375 44.19921875 C95.10961891 34.04310229 91.42786769 27.2353517 84.125 20.25 C69.07256996 9.41225037 50.73586922 10.5977693 33 10.8125 C25.74 10.874375 18.48 10.93625 11 11 Z " fill="#1339A2" transform="translate(0,5)"/>
<path d="M0 0 C3.96 0 7.92 0 12 0 C12.00586624 1.11927383 12.01173248 2.23854767 12.01777649 3.39173889 C12.07526745 13.99754361 12.14816414 24.60314846 12.23571491 35.20874882 C12.28023012 40.65973971 12.31952664 46.11065909 12.34643555 51.56176758 C12.372658 56.83336123 12.41319091 62.10467686 12.46318626 67.37609673 C12.47972796 69.37603708 12.49132054 71.37602538 12.49761391 73.37602425 C12.56204983 91.99021415 13.42781593 110.94197186 26.6875 125.5 C38.67678095 136.34855324 53.20399556 137.89150473 68.58984375 137.1953125 C80.06639255 136.26528423 89.35890922 131.00120707 97.25 122.875 C109.15696654 108.73844212 108.31633178 90.54326612 108.4140625 73.14453125 C108.43279783 71.0303219 108.45237296 68.91611984 108.4727478 66.80192566 C108.52382521 61.27009401 108.56358073 55.73823818 108.60089111 50.20629883 C108.64108458 44.54828022 108.69210654 38.89036007 108.7421875 33.23242188 C108.83865759 22.15501733 108.92315393 11.07755686 109 0 C112.96 0 116.92 0 121 0 C121.0698767 11.97970858 121.12300105 23.95936771 121.15543652 35.9392395 C121.17101322 41.50351217 121.19210342 47.06764418 121.22631836 52.63183594 C121.25919947 58.01352294 121.27691293 63.39507567 121.28463173 68.77685547 C121.2901241 70.81789256 121.30084736 72.85892329 121.31719017 74.89990234 C121.48083089 96.20671942 119.69429831 116.24334403 105 133 C98.81031908 139.02517113 92.08227372 143.02824476 84 146 C83.15695312 146.3196875 82.31390625 146.639375 81.4453125 146.96875 C64.43277542 152.29441378 44.11274011 150.12379963 28.25 142.4375 C14.38660002 134.23516052 6.0453845 121.31791975 2 106 C-0.42922651 94.21891076 -0.26029366 82.47553614 -0.1953125 70.5078125 C-0.19157404 68.46516052 -0.18873102 66.42250672 -0.18673706 64.37985229 C-0.1791661 59.05017998 -0.15957514 53.72061978 -0.1373291 48.39099121 C-0.11672843 42.93385331 -0.10770518 37.47669698 -0.09765625 32.01953125 C-0.07632196 21.34630539 -0.04226672 10.67316208 0 0 Z " fill="#1339A2" transform="translate(695,4)"/>
<path d="M0 0 C4.62 0 9.24 0 14 0 C16.89580986 6.7977442 19.79150955 13.59553531 22.68710327 20.39337158 C23.72959137 22.8407647 24.77209219 25.28815239 25.81460571 27.73553467 C31.39867134 40.84466154 36.98171981 53.95421776 42.55859375 67.06640625 C53.35188056 92.44848037 53.35188056 92.44848037 64.1875 117.8125 C64.67500732 118.95154785 65.16251465 120.0905957 65.66479492 121.26416016 C66.09896729 122.27655762 66.53313965 123.28895508 66.98046875 124.33203125 C67.35067139 125.19546143 67.72087402 126.0588916 68.10229492 126.94848633 C68.70013385 128.3147198 69.33306593 129.66613185 70 131 C80.24991281 107.50347467 90.28950229 83.91872884 100.3125 60.32470703 C104.44918016 50.58800937 108.59218157 40.85400081 112.73483276 31.11984253 C114.03702218 28.05986951 115.3389776 24.99979703 116.64086914 21.93969727 C117.43896164 20.06396348 118.23705718 18.18823099 119.03515625 16.3125 C119.39363647 15.46981064 119.7521167 14.62712128 120.12145996 13.75889587 C122.07430059 9.16971454 124.03319115 4.58321297 126 0 C130.29 0 134.58 0 139 0 C136.61376144 7.90110102 133.29547891 15.32257598 129.90921021 22.83096313 C128.1029997 26.83741508 126.31208055 30.85070312 124.51953125 34.86328125 C124.14624191 35.69806503 123.77295258 36.53284882 123.38835144 37.39292908 C119.39111014 46.34206091 115.47140664 55.32451027 111.5625 64.3125 C110.85579625 65.9365243 110.14909051 67.56054773 109.44238281 69.18457031 C108.01687568 72.46119135 106.59199816 75.73808541 105.16748047 79.01513672 C101.49159199 87.47057479 97.80845308 95.92285522 94.125 104.375 C93.77044739 105.18870056 93.41589478 106.00240112 93.05059814 106.84075928 C87.06576607 120.5746823 81.04930683 134.29433507 75 148 C71.37 148 67.74 148 64 148 C55.93872644 129.93813276 47.9063528 111.8665176 40.06860352 93.70629883 C35.88245015 84.0122303 31.64733132 74.3401606 27.39782715 64.67370605 C25.10550604 59.45887667 22.81556826 54.24300012 20.52526855 49.02728271 C18.52963767 44.48270312 16.53341962 39.93838335 14.53613281 35.39453125 C12.5271896 30.82306595 10.52221321 26.24987839 8.51989746 21.67550659 C7.75990833 19.94097868 6.99860749 18.20702488 6.23596191 16.47366333 C5.18255465 14.07896671 4.13368927 11.68233156 3.0859375 9.28515625 C2.77125519 8.57262695 2.45657288 7.86009766 2.13235474 7.12597656 C0 2.22817092 0 2.22817092 0 0 Z " fill="#1439A2" transform="translate(508,5)"/>
<path d="M0 0 C6.01605992 2.71129973 10.08795485 7.29159089 12.95703125 13.16015625 C14.09735662 18.97581563 14.79800075 24.77639498 11.89453125 30.16015625 C7.01959269 36.87966616 1.80552087 41.18952566 -6.49609375 42.734375 C-13.22486265 43.11849763 -18.19505783 40.21692225 -23.16796875 36.03515625 C-27.99389091 30.27086034 -30.09580722 26.36713719 -29.73046875 18.83203125 C-28.76177876 11.13094584 -25.48339958 6.17391304 -19.41796875 1.34765625 C-13.9239951 -2.16661261 -6.10629586 -1.64741746 0 0 Z " fill="#163BA3" transform="translate(413.41796875,56.65234375)"/>
<path d="M0 0 C0.7734375 0.25265625 1.546875 0.5053125 2.34375 0.765625 C5.62880231 2.26532279 7.14467093 3.82614442 8.4375 7.1875 C9.33288289 9.89267958 9.33288289 9.89267958 11.6875 11.625 C13.5 13.75 13.5 13.75 13.5 17.3125 C12.5 20.75 12.5 20.75 10.875 22.75 C7.38418213 24.21981805 5.10851044 23.73413921 1.5 22.75 C-0.84572071 20.63128452 -1.39543972 19.3474873 -1.9375 16.25 C-1.36218363 12.9624779 -0.07634853 11.79592383 2.5 9.75 C3.16 9.75 3.82 9.75 4.5 9.75 C2.02090818 5.52096102 -1.09732497 4.59111865 -5.5 2.75 C-6.16 1.76 -6.82 0.77 -7.5 -0.25 C-4.10731255 -1.38089582 -3.27743849 -1.11432909 0 0 Z " fill="#E9EDF6" transform="translate(417.5,102.25)"/>
<path d="M0 0 C-0.99 0.33 -1.98 0.66 -3 1 C-3.33 1.99 -3.66 2.98 -4 4 C-6.01991785 4.94030659 -8.05516382 5.51654915 -10.1875 6.15625 C-10.785625 6.4346875 -11.38375 6.713125 -12 7 C-12.33 7.99 -12.66 8.98 -13 10 C-12.360625 10.309375 -11.72125 10.61875 -11.0625 10.9375 C-9 12 -9 12 -8 13 C-7.63604023 16.85797355 -7.43992465 19.15988698 -9.625 22.4375 C-12.71685231 24.47161336 -14.36367425 24.60605429 -18 24 C-20.375 22.4375 -20.375 22.4375 -22 20 C-22.73283481 14.03263086 -22.73283481 14.03263086 -20.625 11.0625 C-19 10 -19 10 -17 10 C-16.835 8.906875 -16.67 7.81375 -16.5 6.6875 C-15 3 -15 3 -13.33203125 1.8671875 C-8.81833834 0.06869478 -4.81793469 -0.30112092 0 0 Z " fill="#F0F3F9" transform="translate(403,102)"/>
<path d="M0 0 C1.2065625 0.0309375 1.2065625 0.0309375 2.4375 0.0625 C2.81968767 1.71864657 3.15145102 3.38707024 3.4375 5.0625 C2.4375 6.0625 2.4375 6.0625 -0.125 6.125 C-1.3315625 6.0940625 -1.3315625 6.0940625 -2.5625 6.0625 C-2.94468767 4.40635343 -3.27645102 2.73792976 -3.5625 1.0625 C-2.5625 0.0625 -2.5625 0.0625 0 0 Z " fill="#2B4CAC" transform="translate(365.5625,92.9375)"/>
<path d="M0 0 C1.67542976 0.28604898 3.34385343 0.61781233 5 1 C4.67 2.65 4.34 4.3 4 6 C2.125 6.625 2.125 6.625 0 7 C-0.66 6.34 -1.32 5.68 -2 5 C-1.46428571 1.46428571 -1.46428571 1.46428571 0 0 Z " fill="#2144A8" transform="translate(364,57)"/>
<path d="M0 0 C1.32 0 2.64 0 4 0 C4.33 1.98 4.66 3.96 5 6 C3.34385343 6.38218767 1.67542976 6.71395102 0 7 C-1 6 -1 6 -1.125 3.5 C-1 1 -1 1 0 0 Z " fill="#2C4DAC" transform="translate(404,132)"/>
<path d="M0 0 C1.67542976 0.28604898 3.34385343 0.61781233 5 1 C5 2.65 5 4.3 5 6 C1.25 7.125 1.25 7.125 -1 6 C-1.042721 4.33388095 -1.04063832 2.66617115 -1 1 C-0.67 0.67 -0.34 0.34 0 0 Z " fill="#294BAB" transform="translate(444,57)"/>
<path d="M0 0 C2.125 0.375 2.125 0.375 4 1 C4 2.65 4 4.3 4 6 C2.35 6.33 0.7 6.66 -1 7 C-1.625 4.625 -1.625 4.625 -2 2 C-1.34 1.34 -0.68 0.68 0 0 Z " fill="#2A4BAB" transform="translate(387,115)"/>
<path d="M0 0 C1.67542976 0.28604898 3.34385343 0.61781233 5 1 C5.5625 2.9375 5.5625 2.9375 6 5 C5 6 5 6 2.4375 6.0625 C1.2309375 6.0315625 1.2309375 6.0315625 0 6 C-0.38218767 4.34385343 -0.71395102 2.67542976 -1 1 C-0.67 0.67 -0.34 0.34 0 0 Z " fill="#2648AA" transform="translate(346,75)"/>
<path d="M0 0 C1.65 0 3.3 0 5 0 C5.33 1.65 5.66 3.3 6 5 C3.625 5.625 3.625 5.625 1 6 C0.34 5.34 -0.32 4.68 -1 4 C-0.625 1.875 -0.625 1.875 0 0 Z " fill="#2547A9" transform="translate(421,36)"/>
<path d="M0 0 C1.2065625 0.0309375 1.2065625 0.0309375 2.4375 0.0625 C3.0625 1.9375 3.0625 1.9375 3.4375 4.0625 C2.7775 4.7225 2.1175 5.3825 1.4375 6.0625 C-0.6875 5.6875 -0.6875 5.6875 -2.5625 5.0625 C-3.125 3.125 -3.125 3.125 -3.5625 1.0625 C-2.5625 0.0625 -2.5625 0.0625 0 0 Z " fill="#2346A9" transform="translate(423.5625,115.9375)"/>
<path d="M0 0 C1.2065625 0.0309375 1.2065625 0.0309375 2.4375 0.0625 C2.4375 2.0425 2.4375 4.0225 2.4375 6.0625 C0.7875 6.0625 -0.8625 6.0625 -2.5625 6.0625 C-2.94468767 4.40635343 -3.27645102 2.73792976 -3.5625 1.0625 C-2.5625 0.0625 -2.5625 0.0625 0 0 Z " fill="#1E41A7" transform="translate(463.5625,74.9375)"/>
<path d="M0 0 C1.2065625 0.0309375 1.2065625 0.0309375 2.4375 0.0625 C2.4375 1.7125 2.4375 3.3625 2.4375 5.0625 C0.7875 5.3925 -0.8625 5.7225 -2.5625 6.0625 C-2.94468767 4.40635343 -3.27645102 2.73792976 -3.5625 1.0625 C-2.5625 0.0625 -2.5625 0.0625 0 0 Z " fill="#1B3FA6" transform="translate(388.5625,35.9375)"/>
<path d="M0 0 C1.65 0 3.3 0 5 0 C5.33 1.65 5.66 3.3 6 5 C4.34385343 5.38218767 2.67542976 5.71395102 1 6 C0 5 0 5 -0.0625 2.4375 C-0.041875 1.633125 -0.02125 0.82875 0 0 Z " fill="#1C40A6" transform="translate(403,19)"/>
<path d="M0 0 C1.65 0.33 3.3 0.66 5 1 C4.67 2.65 4.34 4.3 4 6 C2.35 5.67 0.7 5.34 -1 5 C-0.67 3.35 -0.34 1.7 0 0 Z " fill="#1A3EA5" transform="translate(444,93)"/>
</svg>
