<?xml version="1.0" encoding="UTF-8"?>
<svg version="1.1" xmlns="http://www.w3.org/2000/svg" width="1931" height="359">
<path d="M0 0 C5.90291608 5.20992876 11.12092585 11.07679664 15.76171875 17.4375 C16.46554687 16.61507812 17.169375 15.79265625 17.89453125 14.9453125 C33.39628052 -2.75384968 54.07814137 -15.54619533 77.76171875 -18.5625 C91.60945057 -19.3547012 104.57354242 -19.08246122 117.76171875 -14.5625 C119.33759766 -14.0365625 119.33759766 -14.0365625 120.9453125 -13.5 C141.9123967 -5.64756794 157.78188688 11.18407966 167.15625 31.11328125 C171.84234274 42.95022926 173.34599409 54.0866617 173.21582031 66.73608398 C173.21468854 68.30477876 173.21533211 69.87347564 173.21759033 71.44216919 C173.21872556 75.65001609 173.19541245 79.85739537 173.1672945 84.06513476 C173.14207923 88.48131025 173.13992314 92.89749959 173.13519287 97.31373596 C173.12282166 105.65379872 173.09008041 113.99364866 173.04979491 122.33361822 C173.00489357 131.83798723 172.98304425 141.34236706 172.96301317 150.84681594 C172.92134167 170.37718869 172.84806369 189.90727014 172.76171875 209.4375 C154.94171875 209.4375 137.12171875 209.4375 118.76171875 209.4375 C118.74189941 205.57796631 118.72208008 201.71843262 118.70166016 197.74194336 C118.63457041 184.94956989 118.55703029 172.15727733 118.47419167 159.36499691 C118.42424924 151.6137123 118.37780564 143.8624373 118.33984375 136.11108398 C118.30671454 129.34837105 118.26677102 122.58573701 118.21892869 115.82311159 C118.19386967 112.24838545 118.17202997 108.67371023 118.15837479 105.09892082 C118.75954245 72.54778627 118.75954245 72.54778627 105.76171875 43.4375 C98.0462396 35.83653631 89.2898735 32.55201484 78.51171875 32.25 C66.5717233 32.43030194 55.61714257 36.33253583 46.76171875 44.4375 C34.11251378 58.2800262 31.64486798 75.97068155 31.55639648 93.98217773 C31.54649689 95.23165695 31.53659729 96.48113617 31.52639771 97.76847839 C31.50031217 101.17704086 31.47840838 104.58558118 31.45839572 107.99418139 C31.43644316 111.56296407 31.40910007 115.13170544 31.38233948 118.70045471 C31.33253738 125.4504823 31.28755254 132.20053296 31.24431711 138.95060545 C31.19483767 146.63867779 31.13995944 154.32670866 31.08463752 162.01474082 C30.97100924 177.82229028 30.86484149 193.62987799 30.76171875 209.4375 C12.61171875 209.4375 -5.53828125 209.4375 -24.23828125 209.4375 C-24.26015503 203.52759155 -24.26015503 203.52759155 -24.2824707 197.49829102 C-24.33297503 184.43050365 -24.39945087 171.36283756 -24.47399616 158.29516697 C-24.51877519 150.37802533 -24.55822995 142.46092689 -24.5847168 134.54370117 C-24.60784304 127.63518021 -24.64140092 120.72679801 -24.68698281 113.81838745 C-24.71072009 110.167561 -24.72957536 106.51687029 -24.73589516 102.8659687 C-24.03823938 71.004341 -24.03823938 71.004341 -37.34375 42.93359375 C-45.13635247 35.44442005 -55.01176052 32.02032527 -65.77734375 32.2265625 C-78.46998837 33.31450347 -88.98461176 37.16713629 -97.71875 46.6171875 C-106.07040637 56.6219995 -110.31005144 70.20302837 -110.39649963 83.17025757 C-110.41118286 84.84863205 -110.41118286 84.84863205 -110.42616272 86.56091309 C-110.43191818 87.77363892 -110.43767365 88.98636475 -110.44360352 90.23583984 C-110.45350311 91.52418732 -110.46340271 92.81253479 -110.47360229 94.1399231 C-110.50054341 97.66009712 -110.5216111 101.1802844 -110.54160428 104.70050383 C-110.56353074 108.38406993 -110.59088673 112.06759567 -110.61766052 115.75112915 C-110.66749762 122.72076957 -110.71246962 129.6904325 -110.75568289 136.66011679 C-110.80513222 144.59725368 -110.86002172 152.53435005 -110.91536248 160.47144771 C-111.02904456 176.79342907 -111.1351953 193.11544775 -111.23828125 209.4375 C-129.71828125 209.4375 -148.19828125 209.4375 -167.23828125 209.4375 C-167.23828125 135.5175 -167.23828125 61.5975 -167.23828125 -14.5625 C-148.75828125 -14.5625 -130.27828125 -14.5625 -111.23828125 -14.5625 C-110.74328125 -4.1675 -110.74328125 -4.1675 -110.23828125 6.4375 C-108.10359375 4.1790625 -108.10359375 4.1790625 -105.92578125 1.875 C-76.71325517 -27.25523727 -31.02730071 -24.38161693 0 0 Z " fill="#00082A" transform="translate(1758.23828125,146.5625)"/>
<path d="M0 0 C71.28 0 142.56 0 216 0 C216 17.49 216 34.98 216 53 C163.86 53 111.72 53 58 53 C58 75.77 58 98.54 58 122 C104.53 122 151.06 122 199 122 C199 138.83 199 155.66 199 173 C152.47 173 105.94 173 58 173 C58 213.59 58 254.18 58 296 C38.86 296 19.72 296 0 296 C0 198.32 0 100.64 0 0 Z " fill="#00082A" transform="translate(510,60)"/>
<path d="M0 0 C18.48 0 36.96 0 56 0 C56.0093457 3.95564941 56.01869141 7.91129883 56.02832031 11.98681641 C56.0621638 25.09056469 56.11755512 38.19414871 56.18390274 51.29776955 C56.22358804 59.23855521 56.25603358 67.17924327 56.27099609 75.12011719 C56.28406745 82.04731654 56.31117049 88.97430021 56.35461307 95.90137804 C56.3771057 99.56388905 56.3929181 103.22613527 56.39188385 106.88872147 C56.39098921 110.99333471 56.42144411 115.09717648 56.45410156 119.20166016 C56.4490712 120.39497452 56.44404083 121.58828888 56.43885803 122.81776428 C56.59353891 135.47354909 59.7448817 146.59568199 67 157 C67.86625 158.3303125 67.86625 158.3303125 68.75 159.6875 C77.78748428 168.97602551 89.1922217 173.9957713 102 175 C117.0548672 175.15310034 130.13932312 170.9249894 141.44140625 160.81640625 C154.03423122 147.84004347 158.45456583 131.67695312 158.43237305 113.97949219 C158.4425647 112.73903641 158.45275635 111.49858063 158.46325684 110.22053528 C158.48805783 106.85965551 158.50007214 103.49921087 158.50611091 100.13827801 C158.51556926 96.61085657 158.54177787 93.08355787 158.56611633 89.55621338 C158.60958174 82.89489423 158.63825065 76.23359918 158.66143972 69.57218194 C158.69368992 60.55775499 158.74912977 51.54347145 158.80318546 42.52915382 C158.88759183 28.3528122 158.94130222 14.1765254 159 0 C177.48 0 195.96 0 215 0 C215 73.92 215 147.84 215 224 C196.85 224 178.7 224 160 224 C158.34920558 222.34920558 158.77450553 220.36263821 158.68359375 218.08984375 C158.62075195 216.60581055 158.62075195 216.60581055 158.55664062 215.09179688 C158.51732422 214.05087891 158.47800781 213.00996094 158.4375 211.9375 C158.39431641 210.89271484 158.35113281 209.84792969 158.30664062 208.77148438 C158.20018775 206.18113116 158.0981724 203.59067814 158 201 C157.52989502 201.52174805 157.05979004 202.04349609 156.57543945 202.58105469 C143.48095509 216.87688514 123.92312496 225.88526391 104.68701172 227.23193359 C74.30139932 228.5394182 49.92896743 222.62020477 26.6875 202.5625 C9.57534663 186.50085039 0.97797821 165.7573296 -0.17813492 142.40127945 C-0.24346024 138.60207543 -0.24782993 134.8080036 -0.22705078 131.00830078 C-0.22648486 129.56783048 -0.22680675 128.12735961 -0.22793579 126.68688965 C-0.22850324 122.82415332 -0.21684899 118.96154442 -0.20278788 115.09883738 C-0.19017764 111.04432245 -0.18910199 106.98980373 -0.18673706 102.93527222 C-0.18055225 95.27877854 -0.16418258 87.62234284 -0.14403808 79.96587455 C-0.12158503 71.24021019 -0.11066214 62.51454287 -0.10064721 53.78885674 C-0.07981324 35.85919841 -0.04317509 17.92961942 0 0 Z " fill="#00082A" transform="translate(1330,132)"/>
<path d="M0 0 C1.75978855 1.50949604 3.5100457 3.03018375 5.25 4.5625 C6.10335938 5.28308594 6.95671875 6.00367188 7.8359375 6.74609375 C30.00520015 25.87987275 43.656129 53.43979383 46.109375 82.53027344 C48.33054259 114.62923004 39.06826782 144.03479537 18.25 168.5625 C17.49976563 169.4596875 16.74953125 170.356875 15.9765625 171.28125 C-2.45005938 192.51062667 -29.72645101 206.22667888 -57.75 208.5625 C-91.55472878 210.24645057 -121.06813841 201.86123848 -146.453125 179.03076172 C-169.23763789 158.08181309 -182.81134973 130.51935982 -184.75 99.5625 C-184.82089844 98.43070312 -184.89179687 97.29890625 -184.96484375 96.1328125 C-185.91624338 63.78522518 -173.80968992 35.41585728 -152.04296875 11.92578125 C-112.82432079 -28.49548283 -44.90055057 -36.1471473 0 0 Z M-113.75 46.5625 C-114.44609375 47.22636719 -115.1421875 47.89023438 -115.859375 48.57421875 C-127.37365395 60.28932814 -132.65712858 76.40294102 -133.125 92.5625 C-132.66256513 111.31213212 -125.65255366 127.2306148 -113 140.875 C-99.46232944 153.57999638 -83.23349207 158.06506043 -65.1328125 157.76953125 C-48.72151129 157.19076836 -34.23789886 149.92524123 -23.10644531 138.08789062 C-10.7573952 124.20076588 -5.16024155 107.86127246 -5.51171875 89.41796875 C-6.56940235 72.30430134 -13.3774734 57.40172804 -25.75 45.5625 C-26.43578125 44.85738281 -27.1215625 44.15226562 -27.828125 43.42578125 C-39.14025476 32.42787731 -53.70520599 27.76323311 -69.25 27.1875 C-86.8277643 27.83852831 -101.48555931 33.97643936 -113.75 46.5625 Z " fill="#00082A" transform="translate(1037.75,150.4375)"/>
<path d="M0 0 C0.8048584 0.19335938 1.6097168 0.38671875 2.43896484 0.5859375 C20.45725802 5.0178426 36.7171271 12.11843297 53 21 C53 37.5 53 54 53 71 C49.51947948 69.60779179 46.47972992 68.20568101 43.24487305 66.38598633 C21.78018956 54.37933304 -2.39756868 46.51510574 -27 45 C-27.77601562 44.94585937 -28.55203125 44.89171875 -29.3515625 44.8359375 C-40.20951944 44.43648089 -53.24586374 46.15330169 -62 53 C-66.31030578 57.63357871 -67.32783699 60.57033717 -67.19921875 66.75390625 C-66.90686774 70.05002059 -66.25266901 71.5425429 -64 74 C-52.58204197 82.59065414 -35.95471608 84.83854527 -22.26635742 87.82278442 C1.9939885 93.1467264 26.05636325 98.93729172 45 116 C45.70640625 116.61359375 46.4128125 117.2271875 47.140625 117.859375 C58.69630017 128.53293756 63.80846897 142.93214534 64.47021484 158.36816406 C64.70096495 174.88381955 60.02136817 190.52881044 48.4921875 202.625 C26.24840051 223.82284089 -4.95896374 228.70950636 -34.484375 228.25 C-53.56407847 227.69243999 -72.26033599 223.24052968 -90 216.3125 C-90.72123047 216.03446533 -91.44246094 215.75643066 -92.18554688 215.4699707 C-101.50687339 211.66524452 -110.02536645 206.72349134 -119 202 C-119 183.19 -119 164.38 -119 145 C-113.555 148.465 -113.555 148.465 -108 152 C-79.03982694 169.31818349 -45.42702145 184.30984702 -11 177 C-3.28918146 174.79979262 1.48338525 171.77492212 6 165 C6.73207557 160.57938986 6.90437913 156.10756195 5.11328125 151.93359375 C-4.6284623 138.85683889 -29.40014814 136.06101184 -44.1456604 132.59033203 C-102.45806244 118.8641055 -102.45806244 118.8641055 -117.5703125 95.47265625 C-126.0983339 80.72337334 -127.39459386 63.47373838 -123.4375 47 C-118.26223395 30.43556715 -107.31439993 18.28869295 -92.40234375 9.7421875 C-64.73143384 -4.42684329 -30.12272327 -7.48491706 0 0 Z " fill="#00082A" transform="translate(1236,131)"/>
<path d="M0 0 C22.72448807 19.82649737 39.10367503 48.31240546 41.38671875 78.81640625 C42.77448717 107.74690107 37.41846948 136.84951423 17.75 159.26953125 C16.97011719 160.11 16.19023437 160.95046875 15.38671875 161.81640625 C14.55527344 162.739375 13.72382813 163.66234375 12.8671875 164.61328125 C1.2558606 176.92162777 -13.67345311 186.35443557 -30.61328125 188.81640625 C-29.27429262 185.24349272 -27.65579378 181.88566497 -25.8972168 178.50146484 C-17.61125815 162.49303187 -11.5675051 146.00449119 -10.61328125 127.81640625 C-10.53400391 126.52283203 -10.53400391 126.52283203 -10.453125 125.203125 C-9.6708336 100.61196477 -17.949481 77.01898167 -34.05078125 58.50390625 C-35.55337558 56.92385861 -37.07410265 55.36083802 -38.61328125 53.81640625 C-39.71542969 52.67945312 -39.71542969 52.67945312 -40.83984375 51.51953125 C-59.71093223 33.21646885 -84.44768639 28.12793273 -109.8828125 28.50390625 C-136.24892975 29.386085 -159.45630643 42.77513465 -179.04101562 59.49511719 C-180.8451202 61.01123737 -182.70297095 62.4367377 -184.61328125 63.81640625 C-186.01801656 43.21362165 -177.42172539 24.53363827 -164.61328125 8.81640625 C-163.60007812 7.55763672 -163.60007812 7.55763672 -162.56640625 6.2734375 C-146.52113179 -12.61196766 -120.86835164 -26.29913884 -96.16748047 -28.984375 C-59.69604367 -31.82902157 -28.18638057 -23.55184864 0 0 Z " fill="#FF2C77" transform="translate(266.61328125,32.18359375)"/>
<path d="M0 0 C1.02287109 0.92039063 1.02287109 0.92039063 2.06640625 1.859375 C2.63488281 2.36984375 3.20335937 2.8803125 3.7890625 3.40625 C5.19140625 4.734375 5.19140625 4.734375 7.06640625 6.859375 C7.06640625 7.519375 7.06640625 8.179375 7.06640625 8.859375 C6.42316406 8.87395752 5.77992188 8.88854004 5.1171875 8.90356445 C-24.46940923 9.65008789 -54.46402225 14.87440019 -76.93359375 35.859375 C-78.17109375 36.97892578 -78.17109375 36.97892578 -79.43359375 38.12109375 C-96.3363826 54.12205698 -106.81703175 76.14776128 -108.13671875 99.4453125 C-108.47510177 126.79794026 -99.36854589 151.26939939 -80.49365234 171.27246094 C-64.86863827 187.16645022 -44.91761959 196.40046208 -23.93359375 202.859375 C-23.93359375 203.849375 -23.93359375 204.839375 -23.93359375 205.859375 C-26.20379477 206.84002987 -28.47471629 207.8189519 -30.74609375 208.796875 C-31.38869141 209.07466797 -32.03128906 209.35246094 -32.69335938 209.63867188 C-37.07360225 211.52240327 -40.66649337 212.97554886 -45.44238281 213.05224609 C-46.35473694 213.06830902 -47.26709106 213.08437195 -48.20709229 213.10092163 C-52.41930193 213.14581647 -56.63135574 213.18652528 -60.84375 213.20947266 C-63.04893636 213.22591484 -65.25407208 213.25304613 -67.45898438 213.29150391 C-80.58272663 213.51893464 -91.83698255 213.32286714 -103.93359375 207.859375 C-105.18366211 207.31796875 -105.18366211 207.31796875 -106.45898438 206.765625 C-108.54332654 205.80760438 -110.54901474 204.77707966 -112.55859375 203.671875 C-113.61759888 203.09723511 -113.61759888 203.09723511 -114.69799805 202.51098633 C-141.54386906 187.52787906 -160.40385659 162.24295353 -168.93359375 132.859375 C-178.47213228 98.56139258 -172.29078653 65.44409568 -155.28515625 34.8984375 C-139.1951567 8.13409678 -113.00054273 -10.14153287 -82.95751953 -17.66796875 C-54.80348713 -24.24290322 -22.41494866 -19.05455273 0 0 Z " fill="#FF2C77" transform="translate(173.93359375,146.140625)"/>
<path d="M0 0 C5.10092632 1.86533008 8.77613012 4.66272459 13 8 C13.99 8.7425 14.98 9.485 16 10.25 C31.72342736 23.72115263 41.67543534 46.77456556 44 67 C45.1015884 82.9394043 44.90520914 98.70552031 40 114 C39.68651611 115.00861084 39.68651611 115.00861084 39.36669922 116.03759766 C34.46663393 131.40581741 26.71787169 144.94943323 16 157 C15.31550781 157.82757813 14.63101563 158.65515625 13.92578125 159.5078125 C-1.51771671 177.72029253 -27.28559564 193.46587213 -51.18954468 196.39019775 C-54.42799061 196.554239 -57.64416965 196.60692907 -60.88671875 196.6015625 C-62.06861282 196.61013275 -63.2505069 196.618703 -64.46821594 196.62753296 C-66.95135964 196.63893559 -69.43457009 196.64008261 -71.91772461 196.63134766 C-75.66183916 196.62504321 -79.40276077 196.67198894 -83.14648438 196.72265625 C-97.15021379 196.79658584 -109.16097664 195.77952304 -122 190 C-122.71694031 189.68207489 -123.43388062 189.36414978 -124.17254639 189.03659058 C-143.95008411 180.16919173 -161.49305454 166.60497975 -173 148 C-173.495 147.28457031 -173.99 146.56914062 -174.5 145.83203125 C-178.10703767 140.37450811 -180.47282741 134.60033188 -182.75 128.5 C-183.04390625 127.7169751 -183.3378125 126.9339502 -183.640625 126.12719727 C-187.1803995 116.28527215 -188.34440729 107.06506567 -188.3125 96.625 C-188.32861328 95.57828125 -188.34472656 94.5315625 -188.36132812 93.453125 C-188.36598019 85.91677361 -187.13545163 79.21835977 -185 72 C-181.74227197 75.14711051 -179.53748415 78.20224825 -177.25 82.125 C-173.63640547 88.1772166 -169.54902403 93.60820941 -165 99 C-164.52175781 99.61230469 -164.04351562 100.22460938 -163.55078125 100.85546875 C-149.0057238 119.06804785 -125.13823214 130.47221527 -102.609375 134.625 C-76.06088259 137.38328493 -51.31673846 131.30442673 -30.1875 114.625 C-10.57398041 97.73558036 1.88984871 73.90107264 4 48 C5.0295122 31.57356094 3.43978129 16.06222339 0 0 Z " fill="#FF2C77" transform="translate(336,163)"/>
<path d="M0 0 C18.48 0 36.96 0 56 0 C56 97.68 56 195.36 56 296 C37.52 296 19.04 296 0 296 C0 198.32 0 100.64 0 0 Z " fill="#00082A" transform="translate(762,60)"/>
</svg>
