<svg xmlns="http://www.w3.org/2000/svg" viewBox="0 0 707.25 209" xmlns:xlink="http://www.w3.org/1999/xlink">
 <defs>
  <style>
   .cls-1{fill:#00a0df;}
  </style>
 </defs>
 <title>
  MS_2019_Master_Horizontal_Logo_CoreBlue
 </title>
 <g id="Layer_2" data-name="Layer 2">
  <g id="Layer_1-2" data-name="Layer 1">
   <polygon class="cls-1" points="288.12 115.35 262.33 60.42 248.94 60.42 248.94 148.71 262.33 148.71 262.33 89.68 283.16 132.72 293.08 132.72 313.42 89.68 313.42 148.71 326.81 148.71 326.81 60.42 313.42 60.42 288.12 115.35">
   </polygon>
   <path class="cls-1" d="M377.11,124.16c0,9.68-6,14-13,14s-12.65-4.22-12.65-14V85.84H338.79V126c0,7.08,1.49,13,6.33,17.75,3.72,3.58,9.05,5.7,15.5,5.7a22.49,22.49,0,0,0,16.74-7.07v6.32h12.4V85.84H377.11Z">
   </path>
   <path class="cls-1" d="M414.54,130.61V60.42H401.89v70.93c0,9.31,5.21,17.36,17.24,17.36h7.8V137.93h-5.57C416.27,137.93,414.54,135.44,414.54,130.61Z">
   </path>
   <path class="cls-1" d="M457.35,85.1c-16.12,0-26.65,11.79-26.65,32.12,0,23.93,12.52,32.24,28.27,32.24,11,0,17.11-3.36,23.55-9.8l-8.06-7.57c-4.46,4.48-8.17,6.44-15.25,6.44-10.29,0-16-6.81-16-17.6H484v-5.58C484,97.5,474.22,85.1,457.35,85.1Zm-14.13,27c.12-3.83.37-5.7,1.61-8.55a13.14,13.14,0,0,1,12.52-7.93,13,13,0,0,1,12.41,7.93,19.8,19.8,0,0,1,1.73,8.55Z">
   </path>
   <path class="cls-1" d="M546.44,105.43c-3.72-3.34-8.3-5.33-16.5-6.57l-10-1.48A19.79,19.79,0,0,1,510,93.29a10.55,10.55,0,0,1-3.34-8.19c0-7.81,5.7-13.77,16.12-13.77,7.43,0,13.76,1.61,19.21,6.82l8.56-8.43c-7.56-7.07-15.74-10-27.4-10-18.36,0-29.52,10.53-29.52,25.91,0,7.19,2.12,12.77,6.46,16.87,3.84,3.59,9.54,6.08,16.73,7.06l10.41,1.5c5.22.73,7.45,1.61,9.68,3.72s3.47,5.33,3.47,9.18c0,8.55-6.7,13.5-18.22,13.5-9.06,0-16.12-2-22.57-8.43l-8.93,8.81c8.43,8.56,18,11.66,31.25,11.66,18.47,0,31.74-9.68,31.74-25.92C553.63,116,551.27,109.65,546.44,105.43Z">
   </path>
   <path class="cls-1" d="M587,85.1c-8.55,0-14.62,3.22-18.72,7.44-5.95,6.19-7.44,14.14-7.44,24.68s1.49,18.6,7.44,24.79c4.1,4.22,10.17,7.45,18.72,7.45s14.77-3.23,18.85-7.45c5.95-6.19,7.44-14.13,7.44-24.79s-1.49-18.49-7.44-24.68C601.76,88.32,595.55,85.1,587,85.1Zm9.31,49.35a12.92,12.92,0,0,1-9.31,3.72,12.54,12.54,0,0,1-9.16-3.72c-3.86-3.84-4.35-10.42-4.35-17.23s.49-13.4,4.35-17.24a12.45,12.45,0,0,1,9.16-3.6,12.83,12.83,0,0,1,9.31,3.6c3.84,3.84,4.34,10.41,4.34,17.24S600.14,130.61,596.3,134.45Z">
   </path>
   <path class="cls-1" d="M626.07,77.29V87h-7.2v9.68h7.2v52.08h12.65V96.63h12.52V87H638.72v-9c0-4.59,2.21-7.32,6.93-7.32h5.59V59.8h-8C631.52,59.8,626.07,68.24,626.07,77.29Z">
   </path>
   <path class="cls-1" d="M678.88,67.87H666.25V87H659v9.68h7.21v34.59c0,9.06,5.44,17.49,17.22,17.49H691V137.93h-5.2c-4.7,0-7-2.73-7-7.32v-34H691V87H678.88Z">
   </path>
   <path class="cls-1" d="M706.71,77.61a7,7,0,0,0-1.47-2.14,6.87,6.87,0,0,0-2.16-1.42,6.77,6.77,0,0,0-2.62-.52,6.9,6.9,0,0,0-2.64.52,6.8,6.8,0,0,0-2.17,1.42,6.67,6.67,0,0,0-1.48,2.14,6.55,6.55,0,0,0-.54,2.66,6.71,6.71,0,0,0,4.19,6.29,6.9,6.9,0,0,0,2.64.51,6.79,6.79,0,0,0,4.78-1.93A7,7,0,0,0,706.71,83a6.69,6.69,0,0,0,.54-2.71A6.55,6.55,0,0,0,706.71,77.61Zm-1.12,5a5.58,5.58,0,0,1-2.94,3.07,5.53,5.53,0,0,1-2.19.44,5.6,5.6,0,0,1-2.22-.44,5.45,5.45,0,0,1-1.78-1.23,5.75,5.75,0,0,1-1.18-1.84,6.17,6.17,0,0,1-.42-2.31,6,6,0,0,1,.42-2.26,5.66,5.66,0,0,1,1.18-1.82,5.49,5.49,0,0,1,4-1.66,5.53,5.53,0,0,1,2.19.44,5.61,5.61,0,0,1,1.76,1.22A5.35,5.35,0,0,1,705.59,78a5.83,5.83,0,0,1,.43,2.26A6,6,0,0,1,705.59,82.58Z">
   </path>
   <path class="cls-1" d="M703.05,80.17a1.91,1.91,0,0,0,.6-1.56A2.12,2.12,0,0,0,703,76.9a3.29,3.29,0,0,0-2.1-.56h-3.06v7.92H699V80.85h1.31l2.15,3.41h1.33l-2.27-3.5A2.65,2.65,0,0,0,703.05,80.17Zm-2.72-.31H699V77.34h1.63a4.44,4.44,0,0,1,.63,0,1.6,1.6,0,0,1,.56.18,1,1,0,0,1,.4.36,1.18,1.18,0,0,1,.15.63,1.31,1.31,0,0,1-.17.74,1.1,1.1,0,0,1-.46.39,2.13,2.13,0,0,1-.66.15C700.87,79.85,700.61,79.86,700.33,79.86Z">
   </path>
   <path class="cls-1" d="M104.5,0A104.5,104.5,0,1,0,209,104.5,104.5,104.5,0,0,0,104.5,0Zm0,199.81a95.31,95.31,0,1,1,95.31-95.31A95.31,95.31,0,0,1,104.5,199.81Z">
   </path>
   <path class="cls-1" d="M179.76,83.72l0,0C171.36,52.37,145.3,38,145.3,38l-2.93,4.59-37.81,59.2h0L66.67,42.49,63.82,38S37.76,52.37,29.34,83.75h0a76.34,76.34,0,0,0,7.87,60.19,77.94,77.94,0,0,0,34.37,31.3l7-26.66c-15.69-7.4-27.07-22.38-27.07-41.71a49.17,49.17,0,0,1,8.21-27.35L92.39,130.6H116.7l32.68-51.08a49.17,49.17,0,0,1,8.21,27.35c0,19.33-11.38,34.31-27.07,41.71l7,26.66a77.94,77.94,0,0,0,34.37-31.3A76.37,76.37,0,0,0,179.76,83.72Z">
   </path>
  </g>
 </g>
</svg>