<svg version="1.2" xmlns="http://www.w3.org/2000/svg" viewBox="0 0 1551 471" width="1551" height="471"><style>.a{fill:#00afff}.b{fill:#ff7814}</style><path fill-rule="evenodd" class="a" d="m1431 102.6c32.9-16 64.8-33.2 95.4-51.9l-40.2 78.3c-15.9-12.1-35.2-22.4-55.2-26.4zm-802.4 163c-91.7 11.3-178.9 19.2-257.6 24v-274.5h171.9c87.2 0 153.6 41.5 153.6 135 0 50.4-23.5 95.1-67.9 115.5zm-51.7-112.6c0-47.5-42.4-54.8-79.8-54.8h-11v113.5h11c37.4 0 79.8-6.8 79.8-54.7zm914.5-131.8c-76.7 43.1-161.1 79-249.3 109.8 8.4-77.9 69.5-127.9 151.3-127.9 30.5 0 66.2 6.9 98 18.1zm-296.5 124.9c-38.1 12.4-75.9 23.6-114.3 33.9-18.7-41.8-63.6-73-115.4-73-69.1 0-125.1 55.2-125.1 115.9v10.4c-38.9 6.8-78.5 13.2-117.4 19.1l-2-26c0-132.6 117.8-226.1 244.9-226.1 100 0 193.7 57.6 229.3 145.8zm-934.3 149c-157.8 6.8-260.3 3.3-260.3 3.3v-283.6h176.3c95.2 0 160.7 43.6 160.7 144.5 0 72-27 115.5-76.7 135.8zm-43.1-136.6c0-55.5-37.8-55.9-82.6-55.9h-19.4v113.9h19.4c41.7 0 82.6 0 82.6-53.6z"/><path class="b" d="m371 456.2h114.7v-125.9c-40 4-78.3 6.8-114.7 8.8zm224.6 0h143.3l-108.8-140.6c-40 5.1-78.9 9.5-116.9 12.8zm845.2-268.4l-29-8.8c-19.8-6.4-51.2-16.5-51.2-42v-2c-38 16.1-77.4 31.2-117.8 45.5 9.9 61.2 54 77.9 117.8 96 24.6 7.4 69.9 18.2 69.9 49.9 0 31.9-28.6 44.2-55.6 44.2-39.6 0-73.4-20.7-102.7-45.5l-49.2 91.9c45.3 31.5 99.6 50 155.8 50 44.9 0 91-12.1 125.6-41.6 34.9-29.9 45.9-75 45.9-118.6-0.7-69.9-47.9-100.7-109.5-119z"/><path class="b" d="m1090.5 228.5c0 75.4-56.3 131.3-125.3 131.3-51.3 0-95.7-31.5-114.8-78.3-40 7.2-80.5 13.6-119.8 19.6 28.6 102.3 118.7 169.4 234.6 169.4 142 0 244.8-100.6 244.8-242.5q0-18.5-2.8-35.2c-38.5 12.6-77.4 24.4-116.7 34.8z"/><path fill-rule="evenodd" class="b" d="m115.1 349v107.2h-114.8v-107.8c0 0 42.9 1.5 114.8 0.6z"/></svg>