<svg width="145" height="22" viewBox="0 0 145 22" fill="none" xmlns="http://www.w3.org/2000/svg">
<path d="M23.2114 6.34717C23.502 6.28946 23.7733 6.251 24.0252 6.23176C24.2964 6.1933 24.587 6.17406 24.897 6.17406C25.1877 6.17406 25.4686 6.1933 25.7398 6.23176C26.0305 6.27023 26.3114 6.31831 26.5826 6.37602C26.6408 6.47219 26.6892 6.61644 26.728 6.80878C26.7861 6.98188 26.8345 7.17422 26.8733 7.38579C26.912 7.57813 26.9411 7.78009 26.9605 7.99166C26.9992 8.184 27.0283 8.34748 27.0476 8.48212C27.4739 7.88587 27.997 7.35694 28.617 6.89533C29.237 6.41448 30.012 6.17406 30.942 6.17406C31.1357 6.17406 31.3585 6.18368 31.6104 6.20291C31.8623 6.22215 32.0463 6.251 32.1626 6.28946C32.2013 6.4818 32.2304 6.70299 32.2498 6.95303C32.2691 7.20307 32.2788 7.46273 32.2788 7.732C32.2788 8.05898 32.2595 8.4148 32.2207 8.79948C32.2013 9.18416 32.1529 9.5496 32.0754 9.89581C31.8623 9.85734 31.6201 9.83811 31.3488 9.83811C31.097 9.83811 30.942 9.83811 30.8839 9.83811C30.5545 9.83811 30.1864 9.87657 29.7795 9.95351C29.3726 10.0112 28.9851 10.1843 28.617 10.4728C28.2489 10.7613 27.9389 11.1941 27.687 11.7711C27.4545 12.3481 27.3383 13.1559 27.3383 14.1946V21.2919C26.9895 21.3496 26.6408 21.388 26.292 21.4073C25.9433 21.4265 25.6042 21.4361 25.2748 21.4361C24.9455 21.4361 24.6064 21.4265 24.2577 21.4073C23.9283 21.388 23.5795 21.3496 23.2114 21.2919V6.34717Z" fill="black"/>
<path d="M39.0996 21.6092C37.879 21.6092 36.8134 21.4169 35.9028 21.0322C35.0115 20.6283 34.2656 20.0801 33.665 19.3877C33.0837 18.6761 32.6381 17.849 32.3281 16.9065C32.0375 15.9641 31.8922 14.9447 31.8922 13.8484C31.8922 12.752 32.0375 11.723 32.3281 10.7613C32.6381 9.79964 33.0837 8.97258 33.665 8.28017C34.2656 7.56851 35.0115 7.01073 35.9028 6.60682C36.8134 6.20291 37.879 6.00096 39.0996 6.00096C40.3202 6.00096 41.3858 6.20291 42.2964 6.60682C43.2071 7.01073 43.9627 7.56851 44.5633 8.28017C45.1639 8.97258 45.6095 9.79964 45.9002 10.7613C46.1908 11.723 46.3361 12.752 46.3361 13.8484C46.3361 14.9447 46.1908 15.9641 45.9002 16.9065C45.6095 17.849 45.1639 18.6761 44.5633 19.3877C43.9627 20.0801 43.2071 20.6283 42.2964 21.0322C41.3858 21.4169 40.3202 21.6092 39.0996 21.6092ZM39.0996 18.4933C40.1846 18.4933 40.9596 18.099 41.4246 17.3104C41.909 16.5026 42.1511 15.3486 42.1511 13.8484C42.1511 12.3481 41.909 11.2037 41.4246 10.4151C40.9596 9.6073 40.1846 9.20339 39.0996 9.20339C38.034 9.20339 37.259 9.6073 36.7746 10.4151C36.3096 11.2037 36.0771 12.3481 36.0771 13.8484C36.0771 15.3486 36.3096 16.5026 36.7746 17.3104C37.259 18.099 38.034 18.4933 39.0996 18.4933Z" fill="black"/>
<path d="M57.9342 17.7432C58.1667 18.1279 58.3604 18.5799 58.5154 19.0992C58.6704 19.5993 58.7479 20.1955 58.7479 20.8879C57.9729 21.1957 57.2464 21.388 56.5683 21.465C55.8901 21.5611 55.183 21.6092 54.4467 21.6092C53.1874 21.6092 52.0927 21.4169 51.1627 21.0322C50.2327 20.6283 49.4577 20.0801 48.8377 19.3877C48.2371 18.6953 47.7818 17.8778 47.4718 16.9354C47.1618 15.9737 47.0068 14.9351 47.0068 13.8195C47.0068 12.7232 47.1521 11.7038 47.4427 10.7613C47.7527 9.81887 48.208 8.99182 48.8086 8.28017C49.4286 7.56851 50.1939 7.01073 51.1046 6.60682C52.0152 6.20291 53.0711 6.00096 54.2723 6.00096C54.6986 6.00096 55.0861 6.01057 55.4348 6.02981C55.803 6.04904 56.1517 6.08751 56.4811 6.14521C56.8104 6.20291 57.1398 6.27985 57.4692 6.37602C57.7986 6.47219 58.1667 6.59721 58.5736 6.75108C58.5736 7.19345 58.5154 7.69353 58.3992 8.25131C58.2829 8.78986 58.0989 9.30918 57.847 9.80926C57.2658 9.61692 56.7523 9.4919 56.3067 9.4342C55.8805 9.35726 55.3864 9.31879 54.8245 9.31879C53.6233 9.31879 52.7127 9.71309 52.0927 10.5017C51.4921 11.271 51.1918 12.377 51.1918 13.8195C51.1918 15.3774 51.5211 16.5122 52.1799 17.2239C52.8386 17.9355 53.7299 18.2914 54.8536 18.2914C55.1442 18.2914 55.4058 18.2914 55.6383 18.2914C55.8901 18.2721 56.1323 18.2433 56.3648 18.2048C56.5973 18.1664 56.8298 18.1087 57.0623 18.0317C57.3142 17.9548 57.6048 17.8586 57.9342 17.7432Z" fill="black"/>
<path d="M59.6375 0.173106C60.2963 0.0577019 60.9744 0 61.6719 0C62.3694 0 63.0572 0.0577019 63.7353 0.173106V21.263C63.0572 21.3784 62.3694 21.4361 61.6719 21.4361C60.9744 21.4361 60.2963 21.3784 59.6375 21.263V0.173106ZM63.7169 13.4444L67.4369 6.34717C68.1925 6.23176 68.9578 6.17406 69.7328 6.17406C70.4691 6.17406 71.1859 6.23176 71.8834 6.34717L68.0472 13.2425L72.5228 21.263C71.7284 21.3784 70.9631 21.4361 70.2269 21.4361C69.5488 21.4361 68.8319 21.3784 68.0763 21.263L63.7169 13.4444Z" fill="black"/>
<path d="M75.5252 15.0601C75.6027 16.2141 76.0096 17.0508 76.7458 17.5701C77.4821 18.0894 78.4508 18.3491 79.652 18.3491C80.3108 18.3491 80.9792 18.2914 81.6573 18.176C82.3548 18.0413 83.0136 17.8586 83.6335 17.6278C83.8467 18.0125 84.0307 18.4741 84.1857 19.0126C84.3407 19.5512 84.4279 20.1282 84.4473 20.7437C82.9361 21.3207 81.2311 21.6092 79.3323 21.6092C77.9374 21.6092 76.7361 21.4169 75.7286 21.0322C74.7405 20.6475 73.9268 20.1186 73.2874 19.4454C72.6674 18.753 72.2024 17.9356 71.8924 16.9931C71.6018 16.0506 71.4565 15.0216 71.4565 13.9061C71.4565 12.8097 71.6115 11.7807 71.9215 10.819C72.2315 9.85734 72.6868 9.02067 73.2874 8.30902C73.9074 7.59736 74.663 7.03958 75.5543 6.63567C76.4649 6.21253 77.5208 6.00096 78.722 6.00096C79.7683 6.00096 80.6983 6.18368 81.512 6.54912C82.3258 6.91456 83.0136 7.41464 83.5754 8.04936C84.1567 8.68408 84.5926 9.44381 84.8832 10.3286C85.1739 11.1941 85.3192 12.1269 85.3192 13.1271C85.3192 13.4925 85.2998 13.858 85.261 14.2234C85.2417 14.5696 85.2126 14.8485 85.1738 15.0601H75.5252ZM81.4248 12.2039C81.3861 11.2806 81.1245 10.5401 80.6401 9.98236C80.1751 9.40534 79.5164 9.11684 78.6639 9.11684C77.6952 9.11684 76.9589 9.38611 76.4552 9.92466C75.9514 10.4632 75.6511 11.2229 75.5543 12.2039H81.4248Z" fill="black"/>
<path d="M87.2234 9.46305H85.3344L85.1891 8.88603L90.6237 1.9907H91.2921V6.34717H94.8087C94.8668 6.63567 94.9055 6.89533 94.9249 7.12614C94.9443 7.35694 94.954 7.59736 94.954 7.8474C94.954 8.11668 94.9443 8.37633 94.9249 8.62637C94.9055 8.87641 94.8668 9.1553 94.8087 9.46305H91.2921V15.3197C91.2921 15.916 91.3406 16.3968 91.4374 16.7623C91.5343 17.1277 91.6699 17.4162 91.8443 17.6278C92.0381 17.8394 92.2706 17.9836 92.5418 18.0606C92.813 18.1375 93.1327 18.176 93.5009 18.176C93.7915 18.176 94.0724 18.1567 94.3437 18.1183C94.6343 18.0606 94.8862 18.0125 95.0993 17.974C95.2349 18.3395 95.3318 18.7241 95.3899 19.128C95.448 19.5127 95.4771 19.8589 95.4771 20.1667C95.4771 20.3782 95.4674 20.561 95.448 20.7148C95.448 20.8495 95.4383 20.9841 95.419 21.1187C94.5277 21.3303 93.6074 21.4361 92.6581 21.4361C90.8949 21.4361 89.5484 21.0322 88.6184 20.2244C87.6884 19.3973 87.2234 18.0606 87.2234 16.2141V9.46305Z" fill="black"/>
<path d="M96.4307 0.115403C96.6438 0.0769361 96.8763 0.0480851 97.1282 0.0288504C97.3994 0.00961679 97.6416 0 97.8547 0C98.0679 0 98.3004 0.00961679 98.5522 0.0288504C98.8235 0.0480851 99.0657 0.0769361 99.2788 0.115403V16.7911C99.2788 17.3297 99.3272 17.7528 99.4241 18.0606C99.521 18.3683 99.6469 18.6087 99.8019 18.7818C99.9763 18.9357 100.17 19.0415 100.383 19.0992C100.616 19.1377 100.858 19.1569 101.11 19.1569C101.284 19.1569 101.478 19.1473 101.691 19.128C101.923 19.1088 102.117 19.08 102.272 19.0415C102.447 19.7147 102.534 20.4456 102.534 21.2342C102.263 21.3303 101.933 21.388 101.546 21.4073C101.158 21.4457 100.8 21.465 100.47 21.465C99.9085 21.465 99.3853 21.3976 98.901 21.263C98.4166 21.1284 97.9904 20.9072 97.6222 20.5994C97.2541 20.2917 96.9635 19.8782 96.7504 19.3589C96.5373 18.8395 96.4307 18.1952 96.4307 17.4259V0.115403Z" fill="black"/>
<path d="M111.277 14.31C110.987 14.2715 110.618 14.233 110.173 14.1946C109.727 14.1561 109.349 14.1369 109.039 14.1369C107.838 14.1369 106.918 14.3581 106.278 14.8004C105.658 15.2428 105.348 15.916 105.348 16.82C105.348 17.397 105.455 17.849 105.668 18.176C105.881 18.5029 106.143 18.753 106.453 18.9261C106.782 19.0992 107.141 19.205 107.528 19.2435C107.916 19.2819 108.284 19.3012 108.632 19.3012C109.078 19.3012 109.533 19.2819 109.998 19.2435C110.483 19.1857 110.909 19.1088 111.277 19.0126V14.31ZM111.277 11.5114C111.277 10.3767 110.987 9.58807 110.405 9.14569C109.824 8.70331 108.981 8.48212 107.877 8.48212C107.199 8.48212 106.559 8.53982 105.959 8.65523C105.378 8.75139 104.806 8.88603 104.244 9.05914C103.876 8.42442 103.692 7.66468 103.692 6.77993C104.351 6.56835 105.077 6.40487 105.872 6.28946C106.666 6.17406 107.431 6.11636 108.168 6.11636C110.105 6.11636 111.577 6.55874 112.585 7.44349C113.592 8.30902 114.096 9.70347 114.096 11.6269V20.8879C113.418 21.0418 112.595 21.1957 111.626 21.3496C110.657 21.5227 109.669 21.6092 108.662 21.6092C107.712 21.6092 106.85 21.5227 106.075 21.3496C105.319 21.1765 104.67 20.8976 104.128 20.5129C103.605 20.1282 103.198 19.6377 102.907 19.0415C102.617 18.4452 102.471 17.724 102.471 16.8777C102.471 16.0506 102.636 15.3294 102.965 14.7139C103.314 14.0792 103.779 13.5599 104.36 13.1559C104.942 12.7328 105.61 12.4251 106.366 12.2327C107.121 12.0211 107.916 11.9154 108.749 11.9154C109.369 11.9154 109.872 11.9346 110.26 11.9731C110.667 11.9923 111.006 12.0211 111.277 12.0596V11.5114Z" fill="black"/>
<path d="M116.671 6.46257C116.884 6.4241 117.088 6.39525 117.281 6.37602C117.495 6.35678 117.708 6.34717 117.921 6.34717C118.134 6.34717 118.328 6.35678 118.502 6.37602C118.696 6.39525 118.899 6.4241 119.112 6.46257C119.17 6.75108 119.229 7.14537 119.287 7.64545C119.345 8.1263 119.374 8.53021 119.374 8.85718C119.568 8.53021 119.81 8.20323 120.1 7.87626C120.41 7.54928 120.759 7.26077 121.147 7.01073C121.534 6.74146 121.98 6.52989 122.484 6.37602C122.987 6.20291 123.54 6.11636 124.14 6.11636C125.845 6.11636 127.104 6.60682 127.918 7.58775C128.732 8.54944 129.139 9.98236 129.139 11.8865V21.263C128.926 21.3015 128.684 21.3303 128.412 21.3496C128.141 21.3688 127.899 21.3784 127.686 21.3784C127.473 21.3784 127.23 21.3688 126.959 21.3496C126.707 21.3303 126.475 21.3015 126.262 21.263V12.6655C126.262 11.2999 126.049 10.2997 125.622 9.665C125.196 9.01105 124.518 8.68408 123.588 8.68408C123.045 8.68408 122.532 8.78025 122.048 8.97258C121.563 9.16492 121.137 9.46305 120.769 9.86696C120.401 10.2709 120.1 10.7998 119.868 11.4537C119.655 12.0885 119.548 12.8578 119.548 13.7618V21.263C119.335 21.3015 119.093 21.3303 118.822 21.3496C118.57 21.3688 118.337 21.3784 118.124 21.3784C117.911 21.3784 117.669 21.3688 117.398 21.3496C117.126 21.3303 116.884 21.3015 116.671 21.263V6.46257Z" fill="black"/>
<path d="M133.88 14.5696C133.918 16.1853 134.335 17.3682 135.129 18.1183C135.943 18.8684 137.135 19.2435 138.704 19.2435C140.08 19.2435 141.387 19.003 142.627 18.5222C142.782 18.8107 142.908 19.1665 143.005 19.5897C143.102 19.9936 143.16 20.3975 143.18 20.8014C142.54 21.0707 141.833 21.2726 141.058 21.4073C140.302 21.5419 139.46 21.6092 138.53 21.6092C137.173 21.6092 136.011 21.4265 135.042 21.061C134.073 20.6764 133.269 20.1474 132.63 19.4743C132.01 18.7818 131.555 17.974 131.264 17.0508C130.973 16.1083 130.828 15.0793 130.828 13.9638C130.828 12.8674 130.964 11.848 131.235 10.9056C131.526 9.94389 131.962 9.11684 132.543 8.42442C133.124 7.71277 133.851 7.15499 134.722 6.75108C135.614 6.32793 136.66 6.11636 137.861 6.11636C138.888 6.11636 139.789 6.28946 140.564 6.63567C141.339 6.98188 141.988 7.46273 142.511 8.07821C143.034 8.67446 143.431 9.39573 143.703 10.242C143.974 11.0691 144.11 11.9731 144.11 12.954C144.11 13.2233 144.1 13.5118 144.08 13.8195C144.061 14.108 144.042 14.3581 144.022 14.5696H133.88ZM141.261 12.4347C141.261 11.8961 141.184 11.3864 141.029 10.9056C140.893 10.4055 140.68 9.97274 140.39 9.6073C140.118 9.24186 139.76 8.95335 139.314 8.74178C138.888 8.51097 138.375 8.39557 137.774 8.39557C136.592 8.39557 135.681 8.75139 135.042 9.46305C134.422 10.1747 134.044 11.1652 133.909 12.4347H141.261Z" fill="black"/>
<path fill-rule="evenodd" clip-rule="evenodd" d="M15.446 5.9421L19.0007 13.7745L15.446 21.6069C14.652 21.8621 13.8054 22 12.9266 22C11.714 22 10.5627 21.7376 9.52637 21.2665L12.9266 13.7745L9.52637 6.28254C10.5627 5.81145 11.714 5.54907 12.9266 5.54907C13.8054 5.54907 14.652 5.68689 15.446 5.9421Z" fill="#0F62FE"/>
<path fill-rule="evenodd" clip-rule="evenodd" d="M6.03112 6.0101L9.52638 13.7115L6.03112 21.4129C5.13054 21.7517 4.15483 21.937 3.13585 21.937C2.02543 21.937 0.96641 21.7169 0 21.3181L3.45221 13.7115L2.49902e-08 6.10496C0.96641 5.70612 2.02543 5.48608 3.13585 5.48608C4.15483 5.48608 5.13054 5.67137 6.03112 6.0101Z" fill="black"/>
</svg>
